<svg id="SvgjsSvg1006" width="516" height="299" xmlns="http://www.w3.org/2000/svg" version="1.1" xmlns:xlink="http://www.w3.org/1999/xlink" xmlns:svgjs="http://svgjs.com/svgjs"><defs id="SvgjsDefs1007"></defs><g id="SvgjsG1008" transform="translate(25.004241943359375,105.00421142578125)"><path id="SvgjsPath1009" d="M 0 0L 466 0L 466 80L 0 80Z" stroke="none" fill="none"></path><g id="SvgjsG1010"><text id="SvgjsText1011" font-family="微软雅黑" text-anchor="middle" font-size="29px" width="466px" fill="#323232" font-weight="700" align="middle" lineHeight="125%" anchor="middle" family="微软雅黑" size="29px" weight="700" font-style="" opacity="1" y="15.375" transform="rotate(0)"><tspan id="SvgjsTspan1012" dy="36" x="233"><tspan id="SvgjsTspan1013" style="text-decoration:;">mvn archetype:generate</tspan></tspan></text></g></g><g id="SvgjsG1014" transform="translate(75.00424194335938,85.00421142578125)"><path id="SvgjsPath1015" d="M 0 4Q 0 0 4 0L 71 0Q 75 0 75 4L 75 34Q 75 38 71 38L 4 38Q 0 38 0 34Z" stroke="rgba(74,20,140,1)" stroke-width="1" fill-opacity="1" fill="#ba68c8"></path><g id="SvgjsG1016"><text id="SvgjsText1017" font-family="微软雅黑" text-anchor="middle" font-size="17px" width="55px" fill="#323232" font-weight="700" align="middle" lineHeight="125%" anchor="middle" family="微软雅黑" size="17px" weight="700" font-style="" opacity="1" y="4.375" transform="rotate(0)"><tspan id="SvgjsTspan1018" dy="21" x="37.5"><tspan id="SvgjsTspan1019" style="text-decoration:;">主命令</tspan></tspan></text></g></g><g id="SvgjsG1020" transform="matrix(-1.8369701987210297e-16,-1,1,-1.8369701987210297e-16,164.00424194335932,121.00421142578114)"><path id="SvgjsPath1021" d="M 0 264.9999999999999Q 9 264.9999999999999 9 255.9999999999999L 9 141.49999999999994Q 9 132.49999999999994 22 132.49999999999994Q 9 132.49999999999994 9 123.49999999999994L 9 9Q 9 0 0 0" stroke="rgba(50,50,50,1)" stroke-width="2" fill="none"></path><path id="SvgjsPath1022" d="M 0 0L 95.99999999999983 0L 95.99999999999983 264.9999999999999L 0 264.9999999999999Z" stroke="none" fill="none"></path><g id="SvgjsG1023"><text id="SvgjsText1024" font-family="微软雅黑" text-anchor="start" font-size="13px" width="69px" fill="#323232" font-weight="400" align="middle" lineHeight="125%" anchor="start" family="微软雅黑" size="13px" weight="400" font-style="" opacity="1" y="121.87499999999994" transform="rotate(0)"></text></g></g><g id="SvgjsG1025" transform="translate(234.99578857421875,60.00421142578125)"><path id="SvgjsPath1026" d="M 0 0L 128 0L 128 25L 0 25Z" stroke="none" fill="none"></path><g id="SvgjsG1027"><text id="SvgjsText1028" font-family="微软雅黑" text-anchor="middle" font-size="17px" width="128px" fill="#323232" font-weight="700" align="middle" lineHeight="125%" anchor="middle" family="微软雅黑" size="17px" weight="700" font-style="" opacity="1" y="-2.125" transform="rotate(0)"><tspan id="SvgjsTspan1029" dy="21" x="64"><tspan id="SvgjsTspan1030" style="text-decoration:;">子命令</tspan></tspan></text></g></g><g id="SvgjsG1031" transform="matrix(-1.8369701987210297e-16,-1,1,-1.8369701987210297e-16,164.00424194335938,274.00421142578125)"><path id="SvgjsPath1032" d="M 102 0Q 93 0 93 9L 93 55Q 93 64 80 64Q 93 64 93 73L 93 119Q 93 128 102 128" stroke="rgba(50,50,50,1)" stroke-width="2" fill="none"></path><path id="SvgjsPath1033" d="M 0 0L 102 0L 102 128L 0 128Z" stroke="none" fill="none"></path><g id="SvgjsG1034"><text id="SvgjsText1035" font-family="微软雅黑" text-anchor="end" font-size="13px" width="75px" fill="#323232" font-weight="400" align="middle" lineHeight="125%" anchor="end" family="微软雅黑" size="13px" weight="400" font-style="" opacity="1" y="53.375" transform="rotate(0)"></text></g></g><g id="SvgjsG1036" transform="matrix(-1.8369701987210297e-16,-1,1,-1.8369701987210297e-16,302.0042419433594,273.00421142578125)"><path id="SvgjsPath1037" d="M 102 0Q 93 0 93 9L 93 55Q 93 64 80 64Q 93 64 93 73L 93 119Q 93 128 102 128" stroke="rgba(50,50,50,1)" stroke-width="2" fill="none"></path><path id="SvgjsPath1038" d="M 0 0L 102 0L 102 128L 0 128Z" stroke="none" fill="none"></path><g id="SvgjsG1039"><text id="SvgjsText1040" font-family="微软雅黑" text-anchor="end" font-size="13px" width="75px" fill="#323232" font-weight="400" align="middle" lineHeight="125%" anchor="end" family="微软雅黑" size="13px" weight="400" font-style="" opacity="1" y="53.375" transform="rotate(0)"></text></g></g><g id="SvgjsG1041" transform="translate(164.0042419433595,205.00421142578125)"><path id="SvgjsPath1042" d="M 0 0L 128 0L 128 25L 0 25Z" stroke="none" fill="none"></path><g id="SvgjsG1043"><text id="SvgjsText1044" font-family="微软雅黑" text-anchor="middle" font-size="17px" width="128px" fill="#323232" font-weight="700" align="middle" lineHeight="125%" anchor="middle" family="微软雅黑" size="17px" weight="700" font-style="" opacity="1" y="-2.125" transform="rotate(0)"><tspan id="SvgjsTspan1045" dy="21" x="64"><tspan id="SvgjsTspan1046" style="text-decoration:;">插件</tspan></tspan></text></g></g><g id="SvgjsG1047" transform="translate(301.99578857421875,205.00421142578125)"><path id="SvgjsPath1048" d="M 0 0L 128 0L 128 25L 0 25Z" stroke="none" fill="none"></path><g id="SvgjsG1049"><text id="SvgjsText1050" font-family="微软雅黑" text-anchor="middle" font-size="17px" width="128px" fill="#323232" font-weight="700" align="middle" lineHeight="125%" anchor="middle" family="微软雅黑" size="17px" weight="700" font-style="" opacity="1" y="-2.125" transform="rotate(0)"><tspan id="SvgjsTspan1051" dy="21" x="64"><tspan id="SvgjsTspan1052" style="text-decoration:;">目标</tspan></tspan></text></g></g></svg>